<svg width="100" height="100" viewBox="0 0 100 100" fill="none" xmlns="http://www.w3.org/2000/svg">
<g clip-path="url(#clip0_923_2523)">
<rect width="100" height="100" fill="url(#paint0_linear_923_2523)"/>
<path d="M27.4573 54.4211C27.2441 54.4211 27.0385 54.4059 26.8405 54.3754C25.3632 54.1622 24.1677 53.4007 23.2539 52.091C22.2487 50.6746 21.7461 48.847 21.7461 46.6083C21.7461 44.3543 22.2487 41.5596 23.2539 38.2243C23.528 37.478 24.0382 37.1049 24.7845 37.1049C24.9368 37.1049 25.0967 37.1277 25.2642 37.1734C25.6906 37.3105 25.9876 37.5389 26.1551 37.8588C26.3227 38.1634 26.4064 38.4451 26.4064 38.704C26.4064 38.8563 26.3836 39.0086 26.3379 39.1609C25.4089 42.2069 24.9444 44.6969 24.9444 46.6311C24.9444 48.0475 25.1804 49.2811 25.6526 50.3319C26.079 51.3067 26.5511 51.8854 27.0689 52.0681C27.5867 52.2357 27.9599 52.3194 28.1883 52.3194C28.9041 52.3194 29.7341 51.9768 30.6784 51.2914C32.7801 49.6009 34.9884 46.9052 37.3033 43.2044C37.5013 42.9151 37.7526 42.7704 38.0572 42.7704C38.2247 42.7704 38.3846 42.8161 38.5369 42.9074C38.8263 43.1054 38.971 43.3643 38.971 43.6842C38.971 43.8517 38.9177 44.0116 38.8111 44.1639C36.4048 48.0323 34.0518 50.8878 31.7521 52.7306C30.2139 53.8576 28.7823 54.4211 27.4573 54.4211ZM25.4926 35.2316C25.447 35.2316 25.4013 35.2164 25.3556 35.1859C24.2286 34.1046 23.6651 32.9929 23.6651 31.8506C23.6651 31.3328 23.7869 30.9521 24.0306 30.7084C24.1981 30.5256 24.3961 30.4343 24.6246 30.4343C25.1119 30.4343 25.584 30.8835 26.0409 31.7821C26.5283 31.1729 26.9928 30.8683 27.4344 30.8683C27.7543 30.8683 27.9903 31.0054 28.1426 31.2795C28.2645 31.4775 28.3254 31.7136 28.3254 31.9877C28.3254 32.5664 28.0665 33.1756 27.5487 33.8153C27.1222 34.3331 26.4674 34.7976 25.584 35.2088L25.4926 35.2316ZM40.9804 41.5596C45.5189 36.0007 48.877 31.1653 51.0549 27.0533C53.7353 21.9665 55.0755 17.7783 55.0755 14.4887C55.0755 13.5445 54.9537 12.7449 54.71 12.09C54.2684 10.9325 53.8039 10.3081 53.3165 10.2168C52.8292 10.1254 52.4865 10.0797 52.2885 10.0797C51.6945 10.0797 51.0625 10.2548 50.3924 10.6051C48.6562 11.5189 47.217 12.9581 46.0748 14.9227C44.4452 17.8164 43.2039 21.0832 42.3511 24.7231C41.3459 29.0484 40.8433 33.3431 40.8433 37.6075C40.8433 38.9629 40.889 40.2803 40.9804 41.5596ZM46.5773 56.8655C43.5009 56.8655 41.1936 54.9313 39.6554 51.063C38.3152 47.3317 37.6451 42.8846 37.6451 37.7217C37.6451 33.0614 38.1857 28.4392 39.2671 23.855C40.1961 19.9562 41.5363 16.4457 43.2877 13.3236C44.0644 11.9682 44.9249 10.8488 45.8692 9.96546C46.9505 8.9603 47.9709 8.36633 48.9303 8.18358C49.8898 7.98559 50.6056 7.8866 51.0777 7.8866C53.6973 7.8866 55.4715 9.08975 56.4005 11.4961C56.7204 12.3337 56.8803 13.3465 56.8803 14.5344C56.8803 15.3263 56.8041 16.1944 56.6518 17.1387C56.2254 20.0628 54.809 23.7712 52.4027 28.264C50.0117 32.7416 46.288 38.0111 41.2317 44.0725C41.3992 45.4889 41.681 47.0119 42.0769 48.6414C42.4882 50.271 43.0669 51.695 43.8131 52.9134C44.5594 54.1318 45.26 54.7867 45.9148 54.878C46.5697 54.9694 46.9657 55.0151 47.1028 55.0151C48.2298 55.0151 49.57 54.3374 51.1234 52.9819C53.2556 51.1544 55.6543 47.9028 58.3195 43.2273C58.5175 42.9379 58.7764 42.7932 59.0962 42.7932C59.2485 42.7932 59.4008 42.8313 59.5531 42.9074C59.8577 43.075 60.01 43.3339 60.01 43.6842C60.01 43.8212 59.9719 43.9659 59.8958 44.1182C57.1087 48.9765 54.5806 52.3803 52.3113 54.3298C50.3467 56.0203 48.4354 56.8655 46.5773 56.8655ZM66.6797 59.3784C65.0501 59.3784 63.7784 58.9368 62.8647 58.0534C62.0575 57.2767 61.6539 56.302 61.6539 55.1293C61.6539 54.0328 62.1108 52.8296 63.0246 51.5199C64.5171 49.6314 66.0629 48.3978 67.662 47.819C69.2612 47.2403 70.8679 46.9509 72.4823 46.9509H72.7335C72.7031 46.0981 72.5584 45.2909 72.2995 44.5294C71.8578 43.2806 71.1953 42.3135 70.312 41.6281C69.4287 40.9428 68.5834 40.6001 67.7763 40.6001C66.1314 40.6001 64.2582 41.8185 62.1565 44.2553C62.1108 44.3162 62.0499 44.3695 61.9737 44.4152C61.791 46.7758 61.6996 48.946 61.6996 50.9259C61.6996 51.3676 61.5397 51.7483 61.2198 52.0681C60.9152 52.388 60.5421 52.5479 60.1005 52.5479C59.6588 52.5479 59.2857 52.388 58.9811 52.0681C58.6612 51.7483 58.5013 51.3676 58.5013 50.9259C58.5013 47.4688 58.7526 43.6004 59.2552 39.3208C59.773 35.0413 60.5421 30.8378 61.5625 26.7106C63.3749 19.3394 65.7202 14.1536 68.5987 11.1534C70.4567 9.29535 72.4213 8.36633 74.4926 8.36633C74.7819 8.36633 75.0713 8.38918 75.3607 8.43487C76.975 8.64809 78.1249 9.31058 78.8102 10.4224C79.5108 11.5189 79.8611 12.6764 79.8611 13.8947C79.8611 14.7476 79.7316 15.6995 79.4727 16.7503C78.8483 19.3089 77.2111 22.6138 74.5611 26.6649C71.9264 30.716 67.9438 35.5667 62.6134 41.2169C64.7151 39.3894 66.8853 38.4756 69.1241 38.4756C72.0482 38.4756 74.1118 40.1432 75.315 43.4786C75.711 44.5903 75.9166 45.7706 75.9318 47.0195C76.3125 47.0499 76.6857 47.0652 77.0512 47.0652C78.3457 47.0652 79.5869 46.8976 80.7749 46.5626C82.2978 46.1209 83.6533 45.0015 84.8412 43.2044C85.024 42.9151 85.2753 42.7704 85.5951 42.7704C85.7626 42.7704 85.9225 42.8161 86.0748 42.9074C86.3642 43.0902 86.5089 43.3415 86.5089 43.6613C86.5089 43.8288 86.4632 43.9887 86.3718 44.141C85.3971 45.664 84.3386 46.7682 83.1964 47.4535C82.0694 48.1236 80.9652 48.5272 79.8839 48.6643C78.8178 48.7861 77.8279 48.847 76.9141 48.847L75.7947 48.8242C75.7338 49.2659 75.6348 49.7151 75.4977 50.172C73.7006 56.3096 70.7613 59.3784 66.6797 59.3784ZM62.2479 41.5596L62.3621 41.4454C62.2859 41.4911 62.2479 41.5291 62.2479 41.5596ZM62.5905 38.6355C72.9315 27.4416 78.102 19.1185 78.102 13.6663C78.102 12.7525 77.9117 12.0824 77.5309 11.656C77.074 11.1229 76.4801 10.8564 75.749 10.8564C75.3988 10.8564 75.018 10.9173 74.6068 11.0392C71.6827 11.9073 69.2688 14.6029 67.3651 19.1262C66.3294 21.5934 65.4309 24.3728 64.6694 27.4645C63.7708 31.1196 63.0779 34.8433 62.5905 38.6355ZM65.9258 57.4823C67.4793 57.4823 69.0632 56.1345 70.6775 53.4388C71.4695 52.1595 72.0939 50.5985 72.5508 48.7557C71.104 48.7557 69.6952 49.0146 68.3245 49.5324C66.9539 50.0502 65.6669 51.0782 64.4638 52.6164C63.7784 53.5607 63.4358 54.3983 63.4358 55.1293C63.4358 55.769 63.6718 56.3172 64.144 56.7741C64.6313 57.2463 65.2253 57.4823 65.9258 57.4823Z" fill="black"/>
<path d="M38.6465 69.9857C45.8767 73.6485 53.9886 73.8078 61.5715 69.9857" stroke="black" stroke-width="1.40357" stroke-linecap="round"/>
<path d="M39.2505 62.5C38.1004 65.3752 34.6501 65.3752 33.5 62.5" stroke="black" stroke-width="1.40357" stroke-linecap="round"/>
<path d="M66.718 62.5C65.5679 65.3752 62.1176 65.3752 60.9675 62.5" stroke="black" stroke-width="1.40357" stroke-linecap="round"/>
<path d="M37.8438 91.2812V82.2578C37.8438 81.7891 37.9505 81.4375 38.1641 81.2031C38.3776 80.9688 38.6536 80.8516 38.9922 80.8516C39.3411 80.8516 39.6224 80.9688 39.8359 81.2031C40.0547 81.4323 40.1641 81.7839 40.1641 82.2578V91.2812C40.1641 91.7552 40.0547 92.1094 39.8359 92.3438C39.6224 92.5781 39.3411 92.6953 38.9922 92.6953C38.6589 92.6953 38.3828 92.5781 38.1641 92.3438C37.9505 92.1042 37.8438 91.75 37.8438 91.2812ZM45.0391 82.2578V90.5938H49.7422C50.1172 90.5938 50.4036 90.6849 50.6016 90.8672C50.8047 91.0495 50.9062 91.2786 50.9062 91.5547C50.9062 91.8359 50.8073 92.0651 50.6094 92.2422C50.4115 92.4141 50.1224 92.5 49.7422 92.5H44.1406C43.6354 92.5 43.2708 92.388 43.0469 92.1641C42.8281 91.9401 42.7188 91.5781 42.7188 91.0781V82.2578C42.7188 81.7891 42.8229 81.4375 43.0312 81.2031C43.2448 80.9688 43.5234 80.8516 43.8672 80.8516C44.2161 80.8516 44.4974 80.9688 44.7109 81.2031C44.9297 81.4323 45.0391 81.7839 45.0391 82.2578ZM57.3281 92.5H53.8281C53.3229 92.5 52.9609 92.388 52.7422 92.1641C52.5286 91.9349 52.4219 91.5729 52.4219 91.0781V82.4688C52.4219 81.9635 52.5312 81.6016 52.75 81.3828C52.974 81.1589 53.3333 81.0469 53.8281 81.0469H57.5391C58.0859 81.0469 58.5599 81.0807 58.9609 81.1484C59.362 81.2161 59.7214 81.3464 60.0391 81.5391C60.3099 81.7005 60.5495 81.9062 60.7578 82.1562C60.9661 82.401 61.125 82.6745 61.2344 82.9766C61.3438 83.2734 61.3984 83.5885 61.3984 83.9219C61.3984 85.0677 60.8255 85.9062 59.6797 86.4375C61.1849 86.9167 61.9375 87.849 61.9375 89.2344C61.9375 89.875 61.7734 90.4531 61.4453 90.9688C61.1172 91.4792 60.6745 91.8568 60.1172 92.1016C59.7682 92.2474 59.3672 92.3516 58.9141 92.4141C58.4609 92.4714 57.9323 92.5 57.3281 92.5ZM57.1562 87.4141H54.7422V90.7578H57.2344C58.8021 90.7578 59.5859 90.1927 59.5859 89.0625C59.5859 88.4844 59.3828 88.0651 58.9766 87.8047C58.5703 87.5443 57.9635 87.4141 57.1562 87.4141ZM54.7422 82.7891V85.75H56.8672C57.4453 85.75 57.8906 85.6953 58.2031 85.5859C58.5208 85.4766 58.763 85.2682 58.9297 84.9609C59.0599 84.7422 59.125 84.4974 59.125 84.2266C59.125 83.6484 58.9193 83.2656 58.5078 83.0781C58.0964 82.8854 57.4688 82.7891 56.625 82.7891H54.7422Z" fill="black"/>
</g>
<defs>
<linearGradient id="paint0_linear_923_2523" x1="50" y1="0" x2="50" y2="100" gradientUnits="userSpaceOnUse">
<stop stop-color="#FFF6F7"/>
<stop offset="1" stop-color="#FF9DAA"/>
</linearGradient>
<clipPath id="clip0_923_2523">
<rect width="100" height="100" fill="white"/>
</clipPath>
</defs>
</svg>
