<svg width="322" height="56" viewBox="0 0 322 56" fill="none" xmlns="http://www.w3.org/2000/svg">
<path fill-rule="evenodd" clip-rule="evenodd" d="M0.49707 0H2.63272V56H0.49707V0ZM4.73864 0H6.87429V56H4.73864V0ZM17.4937 0H13.252V56H17.4937V0ZM19.6283 0H21.764V56H19.6283V0ZM30.2481 0H26.0065V56H30.2481V0ZM34.5189 0H36.6546V56H34.5189V0ZM43.0318 0H40.8962V56H43.0318V0ZM149.31 0H151.446V56H149.31V0ZM155.687 0H153.552V56H155.687V0ZM157.853 0H162.095V56H157.853V0ZM166.396 0H164.26V56H166.396V0ZM170.638 0H174.879V56H170.638V0ZM181.257 0H179.121V56H181.257V0ZM185.498 0H187.634V56H185.498V0ZM262.952 0H260.816V56H262.952V0ZM189.725 0H193.967V56H189.725V0ZM272.496 0H268.254V56H272.496V0ZM196.102 0H204.615V56H196.102V0ZM276.796 0H274.66V56H276.796V0ZM281.038 0H285.28V56H281.038V0ZM291.657 0H289.522V56H291.657V0ZM319.361 0H321.497V56H319.361V0ZM316.484 0H314.349V56H316.484V0ZM295.898 0H298.034V56H295.898V0ZM51.5155 0H47.2739V56H51.5155V0ZM300.125 0H304.367V56H300.125V0ZM62.1636 0H53.6507V56H62.1636V0ZM306.089 0H311.251V56H306.089V0ZM66.3764 0H64.2704V56H66.3764V0ZM206.721 0H208.827V56H206.721V0ZM70.6472 0H68.5115V56H70.6472V0ZM210.963 0H213.098V56H210.963V0ZM74.8888 0H72.7828V56H74.8888V0ZM215.234 0H217.34V56H215.234V0ZM79.1605 0H77.0249V56H79.1605V0ZM219.475 0H221.611V56H219.475V0ZM87.6437 0H81.2665V56H87.6437V0ZM223.717 0H230.095V56H223.717V0ZM94.0507 0H91.915V56H94.0507V0ZM234.366 0H236.502V56H234.366V0ZM104.67 0H98.2923V56H104.67V0ZM240.743 0H247.121V56H240.743V0ZM108.911 0H106.775V56H108.911V0ZM249.226 0H251.362V56H249.226V0ZM113.182 0H111.046V56H113.182V0ZM253.498 0H255.633V56H253.498V0ZM123.801 0H121.666V56H123.801V0ZM128.043 0H134.42V56H128.043V0ZM138.691 0H136.555V56H138.691V0ZM140.797 0H142.933V56H140.797V0Z" fill="#393939"/>
</svg>
