<svg width="395" height="438" viewBox="0 0 395 438" fill="none" xmlns="http://www.w3.org/2000/svg">
<g filter="url(#filter0_d_975_2530)">
<path d="M10 6V424H24.4499C24.4499 418.735 28.69 414.456 33.9065 414.456C39.123 414.456 43.3631 418.735 43.3631 424H54.2424C54.2424 418.735 58.4825 414.456 63.699 414.456C68.9154 414.456 73.1555 418.735 73.1555 424H84.0348C84.0348 418.735 88.2749 414.456 93.4914 414.456C98.7079 414.456 102.948 418.735 102.948 424H113.827C113.827 418.735 118.067 414.456 123.284 414.456C128.5 414.456 132.74 418.735 132.74 424H143.62C143.62 418.735 147.86 414.456 153.076 414.456C158.293 414.456 162.533 418.735 162.533 424H173.412C173.412 418.735 177.652 414.456 182.869 414.456C188.085 414.456 192.325 418.735 192.325 424H203.205C203.205 418.735 207.445 414.456 212.661 414.456C217.878 414.456 222.118 418.735 222.118 424H232.997C232.997 418.735 237.237 414.456 242.454 414.456C247.67 414.456 251.91 418.735 251.91 424H262.79C262.79 418.735 267.03 414.456 272.246 414.456C277.463 414.456 281.703 418.735 281.703 424H292.582C292.582 418.735 296.822 414.456 302.039 414.456C307.255 414.456 311.495 418.735 311.495 424H322.375C322.375 418.735 326.615 414.456 331.831 414.456C337.048 414.456 341.288 418.735 341.288 424H352.167C352.167 418.735 356.407 414.456 361.624 414.456C366.84 414.456 371.08 418.735 371.08 424H385V6H10Z" fill="white"/>
</g>
<defs>
<filter id="filter0_d_975_2530" x="0" y="0" width="395" height="438" filterUnits="userSpaceOnUse" color-interpolation-filters="sRGB">
<feFlood flood-opacity="0" result="BackgroundImageFix"/>
<feColorMatrix in="SourceAlpha" type="matrix" values="0 0 0 0 0 0 0 0 0 0 0 0 0 0 0 0 0 0 127 0" result="hardAlpha"/>
<feOffset dy="4"/>
<feGaussianBlur stdDeviation="5"/>
<feComposite in2="hardAlpha" operator="out"/>
<feColorMatrix type="matrix" values="0 0 0 0 0 0 0 0 0 0 0 0 0 0 0 0 0 0 0.05 0"/>
<feBlend mode="normal" in2="BackgroundImageFix" result="effect1_dropShadow_975_2530"/>
<feBlend mode="normal" in="SourceGraphic" in2="effect1_dropShadow_975_2530" result="shape"/>
</filter>
</defs>
</svg>
