<svg width="375" height="445" viewBox="0 0 375 445" fill="none" xmlns="http://www.w3.org/2000/svg">
<g clip-path="url(#clip0_1021_2224)">
<g filter="url(#filter0_d_1021_2224)">
<path d="M0 0V418H14.4499C14.4499 412.735 18.69 408.456 23.9065 408.456C29.123 408.456 33.3631 412.735 33.3631 418H44.2424C44.2424 412.735 48.4825 408.456 53.699 408.456C58.9154 408.456 63.1555 412.735 63.1555 418H74.0348C74.0348 412.735 78.2749 408.456 83.4914 408.456C88.7079 408.456 92.948 412.735 92.948 418H103.827C103.827 412.735 108.067 408.456 113.284 408.456C118.5 408.456 122.74 412.735 122.74 418H133.62C133.62 412.735 137.86 408.456 143.076 408.456C148.293 408.456 152.533 412.735 152.533 418H163.412C163.412 412.735 167.652 408.456 172.869 408.456C178.085 408.456 182.325 412.735 182.325 418H193.205C193.205 412.735 197.445 408.456 202.661 408.456C207.878 408.456 212.118 412.735 212.118 418H222.997C222.997 412.735 227.237 408.456 232.454 408.456C237.67 408.456 241.91 412.735 241.91 418H252.79C252.79 412.735 257.03 408.456 262.246 408.456C267.463 408.456 271.703 412.735 271.703 418H282.582C282.582 412.735 286.822 408.456 292.039 408.456C297.255 408.456 301.495 412.735 301.495 418H312.375C312.375 412.735 316.615 408.456 321.831 408.456C327.048 408.456 331.288 412.735 331.288 418H342.167C342.167 412.735 346.407 408.456 351.624 408.456C356.84 408.456 361.08 412.735 361.08 418H375V0H0Z" fill="white"/>
</g>
</g>
<defs>
<filter id="filter0_d_1021_2224" x="-6" y="-2" width="387" height="430" filterUnits="userSpaceOnUse" color-interpolation-filters="sRGB">
<feFlood flood-opacity="0" result="BackgroundImageFix"/>
<feColorMatrix in="SourceAlpha" type="matrix" values="0 0 0 0 0 0 0 0 0 0 0 0 0 0 0 0 0 0 127 0" result="hardAlpha"/>
<feOffset dy="4"/>
<feGaussianBlur stdDeviation="3"/>
<feComposite in2="hardAlpha" operator="out"/>
<feColorMatrix type="matrix" values="0 0 0 0 0 0 0 0 0 0 0 0 0 0 0 0 0 0 0.05 0"/>
<feBlend mode="normal" in2="BackgroundImageFix" result="effect1_dropShadow_1021_2224"/>
<feBlend mode="normal" in="SourceGraphic" in2="effect1_dropShadow_1021_2224" result="shape"/>
</filter>
<clipPath id="clip0_1021_2224">
<rect width="375" height="445" fill="white"/>
</clipPath>
</defs>
</svg>
