<svg width="1200" height="628" viewBox="0 0 1200 628" fill="none" xmlns="http://www.w3.org/2000/svg">
<rect width="1200" height="628" fill="url(#paint0_linear_925_2056)"/>
<path d="M509.829 331.685C508.976 331.685 508.154 331.624 507.362 331.502C501.453 330.649 496.671 327.603 493.015 322.364C488.995 316.698 486.985 309.388 486.985 300.433C486.985 291.417 488.995 280.238 493.015 266.897C494.112 263.912 496.153 262.42 499.138 262.42C499.747 262.42 500.387 262.511 501.057 262.694C502.763 263.242 503.95 264.156 504.621 265.435C505.291 266.653 505.626 267.78 505.626 268.816C505.626 269.425 505.534 270.034 505.352 270.644C501.636 282.827 499.778 292.788 499.778 300.524C499.778 306.19 500.722 311.124 502.61 315.328C504.316 319.227 506.204 321.542 508.276 322.273C510.347 322.943 511.839 323.278 512.753 323.278C515.616 323.278 518.937 321.907 522.714 319.166C531.12 312.404 539.954 301.621 549.213 286.818C550.005 285.66 551.01 285.081 552.229 285.081C552.899 285.081 553.539 285.264 554.148 285.63C555.305 286.422 555.884 287.457 555.884 288.737C555.884 289.407 555.671 290.046 555.244 290.656C545.619 306.129 536.207 317.551 527.008 324.923C520.855 329.431 515.129 331.685 509.829 331.685ZM501.971 254.927C501.788 254.927 501.605 254.866 501.422 254.744C496.914 250.419 494.66 245.971 494.66 241.403C494.66 239.331 495.148 237.808 496.122 236.834C496.792 236.103 497.584 235.737 498.498 235.737C500.448 235.737 502.336 237.534 504.164 241.128C506.113 238.692 507.971 237.473 509.738 237.473C511.017 237.473 511.961 238.022 512.571 239.118C513.058 239.91 513.302 240.854 513.302 241.951C513.302 244.266 512.266 246.702 510.195 249.261C508.489 251.332 505.869 253.19 502.336 254.835L501.971 254.927ZM563.922 280.238C582.075 258.003 595.508 238.661 604.22 222.213C614.941 201.866 620.302 185.113 620.302 171.955C620.302 168.178 619.815 164.98 618.84 162.36C617.073 157.73 615.215 155.233 613.266 154.867C611.317 154.501 609.946 154.319 609.154 154.319C606.778 154.319 604.25 155.019 601.57 156.42C594.625 160.076 588.868 165.832 584.299 173.691C577.781 185.266 572.816 198.333 569.404 212.892C565.384 230.193 563.373 247.373 563.373 264.43C563.373 269.852 563.556 275.121 563.922 280.238ZM586.309 341.462C574.004 341.462 564.774 333.725 558.622 318.252C553.261 303.327 550.58 285.538 550.58 264.887C550.58 246.246 552.743 227.757 557.068 209.42C560.784 193.825 566.145 179.783 573.151 167.294C576.258 161.873 579.7 157.395 583.477 153.862C587.802 149.841 591.883 147.465 595.721 146.734C599.559 145.942 602.422 145.546 604.311 145.546C614.789 145.546 621.886 150.359 625.602 159.984C626.881 163.335 627.521 167.386 627.521 172.138C627.521 175.305 627.217 178.778 626.607 182.555C624.902 194.251 619.236 209.085 609.611 227.056C600.047 244.966 585.152 266.044 564.927 290.29C565.597 295.956 566.724 302.047 568.308 308.566C569.953 315.084 572.268 320.78 575.253 325.654C578.238 330.527 581.04 333.147 583.659 333.512C586.279 333.878 587.863 334.06 588.411 334.06C592.919 334.06 598.28 331.349 604.494 325.928C613.022 318.617 622.617 305.611 633.278 286.909C634.07 285.752 635.106 285.173 636.385 285.173C636.994 285.173 637.603 285.325 638.212 285.63C639.431 286.3 640.04 287.335 640.04 288.737C640.04 289.285 639.888 289.864 639.583 290.473C628.435 309.906 618.322 323.521 609.245 331.319C601.387 338.081 593.741 341.462 586.309 341.462ZM666.719 351.514C660.201 351.514 655.114 349.747 651.459 346.214C648.23 343.107 646.616 339.208 646.616 334.517C646.616 330.131 648.443 325.319 652.098 320.079C658.068 312.526 664.252 307.591 670.648 305.276C677.045 302.961 683.472 301.804 689.929 301.804H690.934C690.812 298.392 690.234 295.164 689.198 292.118C687.431 287.122 684.781 283.254 681.248 280.513C677.715 277.771 674.334 276.401 671.105 276.401C664.526 276.401 657.033 281.274 648.626 291.021C648.443 291.265 648.199 291.478 647.895 291.661C647.164 301.103 646.798 309.784 646.798 317.704C646.798 319.47 646.159 320.993 644.879 322.273C643.661 323.552 642.168 324.192 640.402 324.192C638.635 324.192 637.143 323.552 635.924 322.273C634.645 320.993 634.005 319.47 634.005 317.704C634.005 303.875 635.01 288.402 637.021 271.283C639.092 254.165 642.168 237.351 646.25 220.842C653.499 191.358 662.881 170.615 674.395 158.614C681.827 151.181 689.685 147.465 697.97 147.465C699.128 147.465 700.285 147.557 701.443 147.739C707.9 148.592 712.5 151.242 715.241 155.689C718.043 160.076 719.444 164.705 719.444 169.579C719.444 172.99 718.926 176.798 717.891 181.001C715.393 191.236 708.844 204.455 698.244 220.66C687.705 236.864 671.775 256.267 650.453 278.868C658.86 271.557 667.541 267.902 676.496 267.902C688.193 267.902 696.447 274.573 701.26 287.914C702.844 292.361 703.666 297.083 703.727 302.078C705.25 302.2 706.743 302.261 708.205 302.261C713.383 302.261 718.348 301.591 723.099 300.25C729.191 298.484 734.613 294.006 739.365 286.818C740.096 285.66 741.101 285.081 742.38 285.081C743.05 285.081 743.69 285.264 744.299 285.63C745.457 286.361 746.035 287.366 746.035 288.645C746.035 289.315 745.853 289.955 745.487 290.564C741.588 296.656 737.354 301.073 732.786 303.814C728.278 306.495 723.861 308.109 719.536 308.657C715.271 309.145 711.312 309.388 707.656 309.388L703.179 309.297C702.935 311.063 702.539 312.861 701.991 314.688C694.803 339.239 683.045 351.514 666.719 351.514ZM648.991 280.238L649.448 279.782C649.144 279.964 648.991 280.117 648.991 280.238ZM650.362 268.542C691.726 223.766 712.408 190.474 712.408 168.665C712.408 165.01 711.647 162.33 710.124 160.624C708.296 158.492 705.92 157.426 702.996 157.426C701.595 157.426 700.072 157.669 698.427 158.157C686.731 161.629 677.075 172.412 669.46 190.505C665.318 200.374 661.723 211.491 658.678 223.858C655.083 238.478 652.312 253.373 650.362 268.542ZM663.703 343.929C669.917 343.929 676.253 338.538 682.71 327.755C685.878 322.638 688.376 316.394 690.203 309.023C684.416 309.023 678.781 310.058 673.298 312.13C667.815 314.201 662.668 318.313 657.855 324.466C655.114 328.243 653.743 331.593 653.743 334.517C653.743 337.076 654.687 339.269 656.576 341.097C658.525 342.985 660.901 343.929 663.703 343.929Z" fill="black"/>
<path d="M554.586 393.943C583.507 408.594 615.955 409.231 646.286 393.943" stroke="black" stroke-width="5.6143" stroke-linecap="round"/>
<path d="M557.002 364C552.402 375.501 538.6 375.501 534 364" stroke="black" stroke-width="5.6143" stroke-linecap="round"/>
<path d="M666.872 364C662.272 375.501 648.47 375.501 643.87 364" stroke="black" stroke-width="5.6143" stroke-linecap="round"/>
<path d="M551.375 480.125V444.031C551.375 442.156 551.802 440.75 552.656 439.812C553.51 438.875 554.615 438.406 555.969 438.406C557.365 438.406 558.49 438.875 559.344 439.812C560.219 440.729 560.656 442.135 560.656 444.031V480.125C560.656 482.021 560.219 483.438 559.344 484.375C558.49 485.312 557.365 485.781 555.969 485.781C554.635 485.781 553.531 485.312 552.656 484.375C551.802 483.417 551.375 482 551.375 480.125ZM580.156 444.031V477.375H598.969C600.469 477.375 601.615 477.74 602.406 478.469C603.219 479.198 603.625 480.115 603.625 481.219C603.625 482.344 603.229 483.26 602.438 483.969C601.646 484.656 600.49 485 598.969 485H576.562C574.542 485 573.083 484.552 572.188 483.656C571.312 482.76 570.875 481.312 570.875 479.312V444.031C570.875 442.156 571.292 440.75 572.125 439.812C572.979 438.875 574.094 438.406 575.469 438.406C576.865 438.406 577.99 438.875 578.844 439.812C579.719 440.729 580.156 442.135 580.156 444.031ZM629.312 485H615.312C613.292 485 611.844 484.552 610.969 483.656C610.115 482.74 609.688 481.292 609.688 479.312V444.875C609.688 442.854 610.125 441.406 611 440.531C611.896 439.635 613.333 439.188 615.312 439.188H630.156C632.344 439.188 634.24 439.323 635.844 439.594C637.448 439.865 638.885 440.385 640.156 441.156C641.24 441.802 642.198 442.625 643.031 443.625C643.865 444.604 644.5 445.698 644.938 446.906C645.375 448.094 645.594 449.354 645.594 450.688C645.594 455.271 643.302 458.625 638.719 460.75C644.74 462.667 647.75 466.396 647.75 471.938C647.75 474.5 647.094 476.812 645.781 478.875C644.469 480.917 642.698 482.427 640.469 483.406C639.073 483.99 637.469 484.406 635.656 484.656C633.844 484.885 631.729 485 629.312 485ZM628.625 464.656H618.969V478.031H628.938C635.208 478.031 638.344 475.771 638.344 471.25C638.344 468.938 637.531 467.26 635.906 466.219C634.281 465.177 631.854 464.656 628.625 464.656ZM618.969 446.156V458H627.469C629.781 458 631.562 457.781 632.812 457.344C634.083 456.906 635.052 456.073 635.719 454.844C636.24 453.969 636.5 452.99 636.5 451.906C636.5 449.594 635.677 448.062 634.031 447.312C632.385 446.542 629.875 446.156 626.5 446.156H618.969Z" fill="black"/>
<defs>
<linearGradient id="paint0_linear_925_2056" x1="578.438" y1="-139.992" x2="576.003" y2="607.504" gradientUnits="userSpaceOnUse">
<stop stop-color="white"/>
<stop offset="1" stop-color="#FF9DAA"/>
</linearGradient>
</defs>
</svg>
