<svg width="30" height="30" viewBox="0 0 30 30" fill="none" xmlns="http://www.w3.org/2000/svg">
<rect width="30" height="30" rx="15" fill="#FFDFE4"/>
<path fill-rule="evenodd" clip-rule="evenodd" d="M15.1734 10.576C14.4546 11.9332 13.3462 13.5291 11.8483 15.3638C11.8181 14.9416 11.8031 14.5068 11.8031 14.0594C11.8031 12.652 11.9689 11.2345 12.3007 9.8069C12.5822 8.60555 12.9918 7.52734 13.5297 6.57229C13.9067 5.92386 14.3817 5.44884 14.9547 5.14725C15.1759 5.03164 15.3845 4.97383 15.5805 4.97383C15.6459 4.97383 15.759 4.98891 15.9198 5.01907C16.0807 5.04923 16.234 5.25532 16.3798 5.63734C16.4602 5.85348 16.5004 6.11738 16.5004 6.42903C16.5004 7.51477 16.0581 8.89709 15.1734 10.576ZM11.411 18.5004C11.9187 19.7772 12.6802 20.4155 13.6956 20.4155C14.3088 20.4155 14.9397 20.1366 15.5881 19.5786C16.2231 19.0331 16.9194 18.1426 17.6773 16.9071C17.6466 17.4482 17.6312 17.9643 17.6312 18.4552C17.6312 18.601 17.684 18.7266 17.7895 18.8322C17.8901 18.9378 18.0132 18.9905 18.159 18.9905C18.3048 18.9905 18.4279 18.9378 18.5284 18.8322C18.634 18.7266 18.6868 18.601 18.6868 18.4552C18.6868 17.8017 18.7169 17.0855 18.7773 16.3063C18.8024 16.2913 18.8225 16.2737 18.8376 16.2536C19.5313 15.4493 20.1495 15.0472 20.6924 15.0472C20.9588 15.0472 21.2378 15.1603 21.5293 15.3865C21.8209 15.6127 22.0395 15.9319 22.1853 16.344C22.2707 16.5954 22.3185 16.8618 22.3286 17.1433H22.2456C21.7128 17.1433 21.1825 17.2388 20.6547 17.4298C20.1269 17.6208 19.6167 18.0279 19.1241 18.6512C18.8225 19.0835 18.6717 19.4806 18.6717 19.8425C18.6717 20.2296 18.8049 20.5513 19.0713 20.8077C19.3729 21.0992 19.7926 21.245 20.3305 21.245C21.6776 21.245 22.6477 20.2321 23.2409 18.2064C23.2861 18.0556 23.3188 17.9073 23.3389 17.7615L23.7084 17.7691C24.01 17.7691 24.3367 17.749 24.6885 17.7088C25.0454 17.6635 25.4099 17.5303 25.7818 17.3091C26.1588 17.0829 26.5082 16.7185 26.8299 16.2159C26.86 16.1656 26.8751 16.1128 26.8751 16.0575C26.8751 15.952 26.8274 15.869 26.7319 15.8087C26.6816 15.7785 26.6288 15.7635 26.5735 15.7635C26.468 15.7635 26.385 15.8112 26.3247 15.9067C25.9326 16.4999 25.4853 16.8693 24.9826 17.0151C24.5905 17.1257 24.1809 17.181 23.7536 17.181C23.633 17.181 23.5098 17.1759 23.3841 17.1659C23.3791 16.7537 23.3113 16.3641 23.1806 15.9972C22.7835 14.8964 22.1024 14.346 21.1373 14.346C20.3983 14.346 19.6821 14.6476 18.9884 15.2507C20.7477 13.3859 22.0621 11.7849 22.9317 10.4478C23.8064 9.11076 24.3467 8.01999 24.5528 7.17552C24.6383 6.82869 24.681 6.51453 24.681 6.23304C24.681 5.83091 24.5654 5.44889 24.3342 5.08697C24.108 4.72003 23.7285 4.50137 23.1956 4.431C23.1001 4.41592 23.0046 4.40838 22.9091 4.40838C22.2255 4.40838 21.5771 4.715 20.9638 5.32825C20.0138 6.31849 19.2397 8.03004 18.6415 10.4629C18.3048 11.8251 18.0509 13.2125 17.88 14.6249C17.8336 15.0199 17.7937 15.4042 17.7603 15.778C17.685 15.7944 17.622 15.8398 17.5711 15.9142C16.6914 17.4574 15.8997 18.5306 15.196 19.1338C14.6833 19.5811 14.241 19.8048 13.869 19.8048C13.8237 19.8048 13.6931 19.7897 13.4769 19.7596C13.2608 19.7294 13.0295 19.5133 12.7832 19.1111C12.5369 18.709 12.3459 18.239 12.2102 17.7012C12.0795 17.1633 11.9865 16.6607 11.9312 16.1932C13.6001 14.1926 14.8291 12.4534 15.6182 10.9756C16.4124 9.49274 16.8799 8.26876 17.0207 7.30366C17.0709 6.99201 17.0961 6.70549 17.0961 6.44411C17.0961 6.05203 17.0433 5.71777 16.9377 5.4413C16.6311 4.6471 16.0455 4.25 15.1809 4.25C15.0251 4.25 14.7889 4.28267 14.4722 4.34802C14.1555 4.40834 13.8187 4.60438 13.4618 4.93613C13.1502 5.22767 12.8662 5.59713 12.6098 6.0445C12.0318 7.07495 11.5894 8.23358 11.2828 9.52039C10.9259 11.0334 10.7475 12.559 10.7475 14.0971C10.7475 14.6823 10.7736 15.2396 10.8257 15.769C10.7507 15.7842 10.687 15.8301 10.6347 15.9067C9.87063 17.1281 9.14177 18.0178 8.4481 18.5758C8.13645 18.802 7.8625 18.9151 7.62625 18.9151C7.55085 18.9151 7.4277 18.8874 7.2568 18.8321C7.08589 18.7718 6.93007 18.5808 6.78932 18.2591C6.6335 17.9123 6.55559 17.5051 6.55559 17.0376C6.55559 16.3993 6.7089 15.5774 7.01552 14.5721C7.0306 14.5218 7.03814 14.4716 7.03814 14.4213C7.03814 14.3358 7.01049 14.2428 6.9552 14.1423C6.89991 14.0368 6.80189 13.9614 6.66114 13.9161C6.60585 13.901 6.55307 13.8935 6.50281 13.8935C6.2565 13.8935 6.08811 14.0167 5.99763 14.263C5.66588 15.3638 5.5 16.2862 5.5 17.0301C5.5 17.769 5.66588 18.3722 5.99763 18.8397C6.29923 19.272 6.69382 19.5233 7.1814 19.5937C7.24674 19.6037 7.3146 19.6087 7.38497 19.6087C7.82229 19.6087 8.29479 19.4228 8.80247 19.0508C9.49524 18.4957 10.2027 17.6621 10.9247 16.55C11.0352 17.2553 11.1973 17.9054 11.411 18.5004ZM18.8677 15.3638L18.9054 15.3261C18.8803 15.3412 18.8677 15.3538 18.8677 15.3638ZM24.1004 6.15764C24.1004 7.95716 22.3939 10.7042 18.9808 14.3987C19.1417 13.1471 19.3704 11.9181 19.667 10.7117C19.9183 9.69133 20.2149 8.77398 20.5567 7.95967C21.185 6.46677 21.9817 5.57707 22.9468 5.29055C23.0825 5.25034 23.2082 5.23023 23.3238 5.23023C23.5651 5.23023 23.7611 5.3182 23.9119 5.49413C24.0376 5.63487 24.1004 5.85604 24.1004 6.15764ZM21.65 19.2846C21.1171 20.1743 20.5944 20.6192 20.0817 20.6192C19.8504 20.6192 19.6544 20.5412 19.4936 20.3854C19.3377 20.2346 19.2598 20.0537 19.2598 19.8425C19.2598 19.6013 19.3729 19.3248 19.5991 19.0132C19.9962 18.5055 20.421 18.1662 20.8734 17.9953C21.3257 17.8244 21.7907 17.7389 22.2682 17.7389C22.1174 18.3471 21.9113 18.8624 21.65 19.2846ZM6.73654 13.2752C6.72146 13.2752 6.70638 13.2702 6.6913 13.2601C6.31934 12.9033 6.13335 12.5363 6.13335 12.1593C6.13335 11.9884 6.17356 11.8628 6.25399 11.7823C6.30928 11.722 6.37463 11.6918 6.45003 11.6918C6.61088 11.6918 6.7667 11.8401 6.9175 12.1367C7.07835 11.9356 7.23166 11.8351 7.37743 11.8351C7.48299 11.8351 7.5609 11.8803 7.61117 11.9708C7.65138 12.0362 7.67149 12.1141 7.67149 12.2046C7.67149 12.3956 7.58604 12.5966 7.41513 12.8078C7.27439 12.9787 7.05824 13.132 6.7667 13.2677L6.73654 13.2752ZM18.0521 24.8254C18.1663 24.7678 18.2122 24.6286 18.1546 24.5143C18.0971 24.4001 17.9578 24.3542 17.8435 24.4117C15.4078 25.6395 12.808 25.5883 10.486 24.412C10.3719 24.3542 10.2326 24.3998 10.1747 24.5139C10.1169 24.628 10.1626 24.7674 10.2767 24.8252C12.7274 26.0667 15.4823 26.1207 18.0521 24.8254ZM10.6668 21.9328C10.548 21.8853 10.4132 21.9431 10.3657 22.0619C10.2075 22.4573 9.90746 22.628 9.63177 22.628C9.35608 22.628 9.05602 22.4573 8.89785 22.0619C8.85034 21.9431 8.71554 21.8853 8.59677 21.9328C8.478 21.9803 8.42023 22.1151 8.46774 22.2339C8.68917 22.7875 9.14828 23.0913 9.63177 23.0913C10.1153 23.0913 10.5744 22.7875 10.7958 22.2339C10.8433 22.1151 10.7855 21.9803 10.6668 21.9328ZM19.4313 22.0619C19.4788 21.9431 19.6136 21.8853 19.7324 21.9328C19.8511 21.9803 19.9089 22.1151 19.8614 22.2339C19.64 22.7875 19.1809 23.0913 18.6974 23.0913C18.2139 23.0913 17.7548 22.7875 17.5333 22.2339C17.4858 22.1151 17.5436 21.9803 17.6624 21.9328C17.7811 21.8853 17.9159 21.9431 17.9634 22.0619C18.1216 22.4573 18.4217 22.628 18.6974 22.628C18.9731 22.628 19.2731 22.4573 19.4313 22.0619Z" fill="black"/>
</svg>
