<svg width="50" height="50" viewBox="0 0 50 50" fill="none" xmlns="http://www.w3.org/2000/svg">
<g clip-path="url(#clip0_923_2518)">
<circle cx="25" cy="25" r="25" fill="#24292F"/>
<ellipse cx="25.4997" cy="23.8872" rx="14.6389" ry="15.0264" fill="white"/>
<path fill-rule="evenodd" clip-rule="evenodd" d="M25.5128 8C16.9346 8 10 14.9068 10 23.4515C10 30.2816 14.4433 36.0633 20.6072 38.1096C21.3779 38.2634 21.6602 37.7771 21.6602 37.368C21.6602 37.0098 21.6348 35.782 21.6348 34.5026C17.3195 35.4238 16.4209 32.6607 16.4209 32.6607C15.7274 30.87 14.6998 30.4097 14.6998 30.4097C13.2874 29.4632 14.8027 29.4632 14.8027 29.4632C16.3694 29.5655 17.1915 31.0492 17.1915 31.0492C18.5782 33.4026 20.8127 32.7376 21.7116 32.3283C21.8399 31.3305 22.2511 30.6399 22.6877 30.2562C19.246 29.898 15.6248 28.5678 15.6248 22.6327C15.6248 20.9443 16.2408 19.5629 17.2169 18.4886C17.0629 18.105 16.5234 16.5186 17.3712 14.3954C17.3712 14.3954 18.6811 13.986 21.6345 15.9814C22.8989 15.6432 24.2029 15.4712 25.5128 15.4697C26.8227 15.4697 28.1579 15.649 29.3909 15.9814C32.3446 13.986 33.6544 14.3954 33.6544 14.3954C34.5022 16.5186 33.9624 18.105 33.8084 18.4886C34.8102 19.5629 35.4008 20.9443 35.4008 22.6327C35.4008 28.5678 31.7797 29.8723 28.3122 30.2562C28.8774 30.7422 29.3652 31.663 29.3652 33.1213C29.3652 35.1933 29.3397 36.8563 29.3397 37.3677C29.3397 37.7771 29.6224 38.2634 30.3927 38.1099C36.5567 36.063 40.9999 30.2816 40.9999 23.4515C41.0253 14.9068 34.0653 8 25.5128 8Z" fill="#24292F"/>
</g>
<defs>
<clipPath id="clip0_923_2518">
<rect width="50" height="50" fill="white"/>
</clipPath>
</defs>
</svg>