<svg width="50" height="50" viewBox="0 0 50 50" fill="none" xmlns="http://www.w3.org/2000/svg">
<g clip-path="url(#clip0_923_2522)">
<circle cx="25" cy="25" r="25" fill="#5865F2"/>
<mask id="mask0_923_2522" style="mask-type:luminance" maskUnits="userSpaceOnUse" x="12" y="15" width="27" height="21">
<path d="M38.0727 15H12V35.1972H38.0727V15Z" fill="white"/>
</mask>
<g mask="url(#mask0_923_2522)">
<path d="M34.0717 16.7986C32.4099 16.0361 30.6279 15.4743 28.7647 15.1526C28.7307 15.1464 28.6968 15.1619 28.6793 15.1929C28.4502 15.6006 28.1963 16.1323 28.0185 16.5503C26.0145 16.2503 24.0208 16.2503 22.0579 16.5503C21.8801 16.123 21.617 15.6006 21.3868 15.1929C21.3693 15.1629 21.3354 15.1474 21.3015 15.1526C19.4393 15.4733 17.6573 16.0351 15.9945 16.7986C15.9801 16.8048 15.9678 16.8152 15.9596 16.8286C12.5795 21.8784 11.6535 26.8041 12.1077 31.6687C12.1098 31.6925 12.1232 31.7153 12.1417 31.7298C14.3718 33.3675 16.532 34.3618 18.6521 35.0208C18.686 35.0311 18.722 35.0187 18.7436 34.9908C19.2451 34.3059 19.6922 33.5838 20.0755 32.8243C20.0981 32.7799 20.0765 32.7271 20.0303 32.7095C19.3211 32.4405 18.6459 32.1126 17.9964 31.7401C17.9451 31.7101 17.9409 31.6366 17.9882 31.6015C18.1249 31.499 18.2616 31.3925 18.3921 31.2849C18.4157 31.2652 18.4486 31.2611 18.4764 31.2735C22.7434 33.2216 27.3629 33.2216 31.5795 31.2735C31.6072 31.2601 31.6401 31.2642 31.6648 31.2839C31.7953 31.3915 31.932 31.499 32.0697 31.6015C32.117 31.6366 32.1139 31.7101 32.0625 31.7401C31.413 32.1198 30.7378 32.4405 30.0277 32.7085C29.9814 32.7261 29.9609 32.7799 29.9835 32.8243C30.375 33.5827 30.8221 34.3048 31.3143 34.9897C31.3349 35.0187 31.3719 35.0311 31.4058 35.0208C33.5362 34.3618 35.6964 33.3675 37.9265 31.7298C37.9461 31.7153 37.9584 31.6936 37.9605 31.6698C38.5041 26.0457 37.0499 21.1604 34.1056 16.8297C34.0984 16.8152 34.0861 16.8048 34.0717 16.7986ZM20.7127 28.7067C19.428 28.7067 18.3695 27.5273 18.3695 26.0789C18.3695 24.6304 19.4075 23.451 20.7127 23.451C22.0281 23.451 23.0764 24.6408 23.0558 26.0789C23.0558 27.5273 22.0178 28.7067 20.7127 28.7067ZM29.3761 28.7067C28.0915 28.7067 27.033 27.5273 27.033 26.0789C27.033 24.6304 28.0709 23.451 29.3761 23.451C30.6916 23.451 31.7398 24.6408 31.7193 26.0789C31.7193 27.5273 30.6916 28.7067 29.3761 28.7067Z" fill="white"/>
</g>
</g>
<defs>
<clipPath id="clip0_923_2522">
<rect width="50" height="50" fill="white"/>
</clipPath>
</defs>
</svg>
